<svg width="96" height="34" viewBox="0 0 96 34" fill="none" xmlns="http://www.w3.org/2000/svg">
<path fill-rule="evenodd" clip-rule="evenodd" d="M41.4317 28.9074H36.9843L36.693 21.8665L36.2799 16.8591C36.1764 13.3484 33.0983 14.2397 32.1666 14.6635L32.4127 28.9074L28.1628 28.7561L27.4719 1.18935L31.8004 0L31.8983 11.1523C36.6054 9.60614 39.1258 9.62278 39.7587 16.7337L41.4317 28.9074ZM0 30.644V5.77916L5.06495 4.44313L5.05253 15.0358L13.6046 6.55168L18.0035 8.29023L11.7875 15.3826L15.9102 30.8302H11.4375L8.13854 18.9952L5.02281 22.1332L5.06495 30.8302L0 30.644ZM45.9492 19.8826C45.8205 22.5737 47.7336 24.6884 49.9816 24.4155C50.8681 24.3079 52.2175 23.0865 52.4023 20.8459C52.6446 17.9192 51.3626 15.4163 49.2433 15.4623C47.1228 15.508 46.0767 17.1908 45.9492 19.8826ZM41.6255 19.8636C41.8731 15.5382 45.3866 11.9721 49.4736 11.8978C53.5605 11.8238 56.8738 15.6903 56.8738 20.5332C56.8738 25.3765 53.3607 28.943 49.0258 28.4995C44.6912 28.056 41.3783 24.1895 41.6255 19.8636ZM65.2976 15.9043C63.1787 15.8583 61.8962 18.3612 62.1382 21.2879C62.3233 23.5285 63.6727 24.7499 64.5593 24.8575C66.8069 25.1304 68.72 23.016 68.5921 20.3246C68.4638 17.6328 67.418 15.9504 65.2976 15.9043ZM65.5147 28.9415C61.1798 29.385 57.6667 25.8185 57.6667 20.9756C57.6667 16.1323 60.98 12.2658 65.0673 12.3405C69.1539 12.4141 72.6681 15.9806 72.9153 20.3064C73.1626 24.6315 69.8493 28.4976 65.5147 28.9415ZM90.5983 29.0506L89.3422 32.0923L92.0003 34L94.6201 32.3884L93.5161 29.0506H90.5983ZM72.845 15.2955L72.1168 10.1217L75.896 10.2571L75.9005 2.99176L79.2793 4.43229L79.2202 10.8818L84.0767 11.2112V14.3426L79.3319 14.6155L79.7297 24.1465C79.7297 24.1465 79.7395 24.892 81.2247 24.892C82.7096 24.892 84.0767 24.0521 84.0767 24.0521V28.9129C84.1414 30.3902 82.112 31.0156 82.112 31.0156C75.6247 32.0288 76.1011 27.6016 76.1011 27.6016L75.89 15.2955H72.845ZM87.0475 2.72006L96 4.49383L92.5448 27.3245L87.0475 2.72006ZM19.1561 24.4697C19.5061 27.6914 22.6854 26.8902 22.6854 26.8902L22.8051 20.0189C19.2231 19.4836 19.1561 24.4697 19.1561 24.4697ZM18.1142 14.5365L16.9281 11.3172C16.9281 11.3168 25.5859 7.33658 26.6166 14.4793L26.4916 29.8266L19.9193 29.8259C19.9193 29.8259 17.0346 29.94 16.1473 26.6301C16.1473 26.6301 13.929 18.1967 22.6948 16.5983L22.7178 14.5435C22.7178 14.5435 21.0557 12.6985 18.1142 14.5365Z" fill="white"/>
<mask id="mask0_1934_340" style="mask-type:alpha" maskUnits="userSpaceOnUse" x="0" y="0" width="96" height="34">
<path fill-rule="evenodd" clip-rule="evenodd" d="M41.4317 28.9074H36.9843L36.693 21.8665L36.2799 16.8591C36.1764 13.3484 33.0983 14.2397 32.1666 14.6635L32.4127 28.9074L28.1628 28.7561L27.4719 1.18935L31.8004 0L31.8983 11.1523C36.6054 9.60614 39.1258 9.62278 39.7587 16.7337L41.4317 28.9074ZM0 30.644V5.77916L5.06495 4.44313L5.05253 15.0358L13.6046 6.55168L18.0035 8.29023L11.7875 15.3826L15.9102 30.8302H11.4375L8.13854 18.9952L5.02281 22.1332L5.06495 30.8302L0 30.644ZM45.9492 19.8826C45.8205 22.5737 47.7336 24.6884 49.9816 24.4155C50.8681 24.3079 52.2175 23.0865 52.4023 20.8459C52.6446 17.9192 51.3626 15.4163 49.2433 15.4623C47.1228 15.508 46.0767 17.1908 45.9492 19.8826ZM41.6255 19.8636C41.8731 15.5382 45.3866 11.9721 49.4736 11.8978C53.5605 11.8238 56.8738 15.6903 56.8738 20.5332C56.8738 25.3765 53.3607 28.943 49.0258 28.4995C44.6912 28.056 41.3783 24.1895 41.6255 19.8636ZM65.2976 15.9043C63.1787 15.8583 61.8962 18.3612 62.1382 21.2879C62.3233 23.5285 63.6727 24.7499 64.5593 24.8575C66.8069 25.1304 68.72 23.016 68.5921 20.3246C68.4638 17.6328 67.418 15.9504 65.2976 15.9043ZM65.5147 28.9415C61.1798 29.385 57.6667 25.8185 57.6667 20.9756C57.6667 16.1323 60.98 12.2658 65.0673 12.3405C69.1539 12.4141 72.6681 15.9806 72.9153 20.3064C73.1626 24.6315 69.8493 28.4976 65.5147 28.9415ZM90.5983 29.0506L89.3422 32.0923L92.0003 34L94.6201 32.3884L93.5161 29.0506H90.5983ZM72.845 15.2955L72.1168 10.1217L75.896 10.2571L75.9005 2.99176L79.2793 4.43229L79.2202 10.8818L84.0767 11.2112V14.3426L79.3319 14.6155L79.7297 24.1465C79.7297 24.1465 79.7395 24.892 81.2247 24.892C82.7096 24.892 84.0767 24.0521 84.0767 24.0521V28.9129C84.1414 30.3902 82.112 31.0156 82.112 31.0156C75.6247 32.0288 76.1011 27.6016 76.1011 27.6016L75.89 15.2955H72.845ZM87.0475 2.72006L96 4.49383L92.5448 27.3245L87.0475 2.72006ZM19.1561 24.4697C19.5061 27.6914 22.6854 26.8902 22.6854 26.8902L22.8051 20.0189C19.2231 19.4836 19.1561 24.4697 19.1561 24.4697ZM18.1142 14.5365L16.9281 11.3172C16.9281 11.3168 25.5859 7.33658 26.6166 14.4793L26.4916 29.8266L19.9193 29.8259C19.9193 29.8259 17.0346 29.94 16.1473 26.6301C16.1473 26.6301 13.929 18.1967 22.6948 16.5983L22.7178 14.5435C22.7178 14.5435 21.0557 12.6985 18.1142 14.5365Z" fill="white"/>
</mask>
<g mask="url(#mask0_1934_340)">
<rect width="107.163" height="34" fill="white"/>
</g>
</svg>
