<svg width="18" height="14" viewBox="0 0 18 14" fill="none" xmlns="http://www.w3.org/2000/svg">
<path fill-rule="evenodd" clip-rule="evenodd" d="M0 1C0 1.55228 0.447715 2 1 2C1.55228 2 2 1.55228 2 1C2 0.44772 1.55228 0 1 0C0.447715 0 0 0.44772 0 1ZM18 0H4V2H18V0ZM1 8C0.447715 8 0 7.55228 0 7C0 6.44772 0.447715 6 1 6C1.55228 6 2 6.44772 2 7C2 7.55228 1.55228 8 1 8ZM18 6H4V8H18V6ZM1 14C0.447715 14 0 13.5523 0 13C0 12.4477 0.447715 12 1 12C1.55228 12 2 12.4477 2 13C2 13.5523 1.55228 14 1 14ZM18 12H4V14H18V12Z" fill="white"/>
</svg>
