<svg width="20" height="20" viewBox="0 0 20 20" fill="none" xmlns="http://www.w3.org/2000/svg">
<path fill-rule="evenodd" clip-rule="evenodd" d="M2 12V9H4C4.266 9 4.52 8.895 4.707 8.707L6 7.415L8.293 9.707C8.684 10.098 9.316 10.098 9.707 9.707L11 8.415L12.293 9.707C12.488 9.902 12.744 10 13 10C13.256 10 13.512 9.902 13.707 9.707L17.999 5.415L17.997 12H2ZM18 2V2.586L13 7.586L11.707 6.293C11.316 5.902 10.684 5.902 10.293 6.293L9 7.586L6.707 5.293C6.316 4.902 5.684 4.902 5.293 5.293L3.586 7H2V2H18ZM18 0H2C0.896 0 0 0.898 0 2V12C0 13.103 0.896 14 2 14H7.585L1.586 19.999H4.414L9 15.414V19.999H11V15.414L15.586 19.999H18.414L12.415 14H18C19.104 14 20 13.103 20 12V2C20 0.898 19.104 0 18 0Z" fill="white"/>
</svg>
