<svg width="20" height="17" viewBox="0 0 20 17" fill="none" xmlns="http://www.w3.org/2000/svg">
<path fill-rule="evenodd" clip-rule="evenodd" d="M18 13H12C11.734 13 11.48 13.105 11.293 13.293L11 13.586V3.415L12.414 2H18V13ZM8 13H2V2H7.586L9 3.415V13.587L8.707 13.294C8.52 13.106 8.266 13 8 13ZM19 0H12C11.734 0 11.48 0.105 11.293 0.293L10 1.586L8.707 0.293C8.52 0.106 8.266 0 8 0H1C0.447 0 0 0.449 0 1V14C0 14.552 0.447 15 1 15H7.586L9.293 16.707C9.488 16.903 9.744 17 10 17C10.256 17 10.512 16.902 10.707 16.707L12.414 15H19C19.553 15 20 14.552 20 14V1C20 0.449 19.553 0 19 0Z" fill="white"/>
</svg>
