<svg width="24" height="16" viewBox="0 0 24 16" fill="none" xmlns="http://www.w3.org/2000/svg">
<path fill-rule="evenodd" clip-rule="evenodd" d="M22 13H2V8C2 7.173 2.673 6.5 3.5 6.5C4.327 6.5 5 7.173 5 8V9C5 9.552 5.447 10 6 10H18C18.553 10 19 9.552 19 9V8C19 7.173 19.673 6.5 20.5 6.5C21.327 6.5 22 7.173 22 8V13ZM8 2H11V8H7C7 6.615 6.185 5.426 5.014 4.859C5.09 3.271 6.395 2 8 2ZM18.986 4.859C17.815 5.426 17 6.615 17 8H13V2H16C17.605 2 18.91 3.271 18.986 4.859ZM20.954 4.546C20.721 2.004 18.602 0 16 0H8C5.398 0 3.279 2.004 3.046 4.546C1.332 4.771 0 6.226 0 8V13C0 14.103 0.896 15 2 15V16H4V15H20V16H22V15C23.104 15 24 14.103 24 13V8C24 6.226 22.668 4.771 20.954 4.546Z" fill="white"/>
</svg>
