<svg width="20" height="20" viewBox="0 0 20 20" fill="none" xmlns="http://www.w3.org/2000/svg">
<path d="M14.0905 14H16.9175C16.0475 15.498 14.7115 16.694 13.1025 17.373C13.5215 16.253 13.8615 15.128 14.0905 14ZM8.92851 17.128C8.51251 16.089 8.20351 15.044 7.96851 14H12.0315C11.7965 15.044 11.4875 16.089 11.0715 17.128L10.7375 17.962C10.4945 17.985 10.2485 18 9.99951 18C9.75051 18 9.50551 17.985 9.26251 17.962L8.92851 17.128ZM5.90951 14C6.13851 15.128 6.47851 16.253 6.89751 17.373C5.28851 16.694 3.95251 15.498 3.08251 14H5.90951ZM2.26351 12C2.09751 11.359 1.99951 10.691 1.99951 10C1.99951 9.309 2.09751 8.641 2.26351 8H5.60351C5.53551 8.668 5.49951 9.335 5.49951 10C5.49951 10.665 5.53551 11.332 5.60351 12H2.26351ZM5.90951 6H3.08251C3.95251 4.502 5.28851 3.306 6.89751 2.627C6.47851 3.747 6.13851 4.872 5.90951 6ZM11.0715 2.872C11.4875 3.911 11.7965 4.956 12.0315 6H7.96851C8.20351 4.956 8.51251 3.911 8.92851 2.872L9.26251 2.038C9.50551 2.015 9.75051 2 9.99951 2C10.2485 2 10.4945 2.015 10.7375 2.038L11.0715 2.872ZM7.62351 12C7.54751 11.331 7.49951 10.664 7.49951 10C7.49951 9.336 7.54751 8.668 7.62351 8H12.3765C12.4525 8.668 12.4995 9.336 12.4995 10C12.4995 10.664 12.4525 11.331 12.3765 12H7.62351ZM14.0905 6C13.8615 4.872 13.5215 3.747 13.1025 2.627C14.7115 3.306 16.0475 4.502 16.9175 6H14.0905ZM17.7365 12H14.3955C14.4645 11.332 14.4995 10.665 14.4995 10C14.4995 9.335 14.4645 8.668 14.3955 8H17.7365C17.9025 8.641 17.9995 9.309 17.9995 10C17.9995 10.691 17.9025 11.359 17.7365 12ZM-0.000488281 10C-0.000488281 15.523 4.47751 20 9.99951 20C15.5225 20 19.9995 15.523 19.9995 10C19.9995 4.477 15.5225 0 9.99951 0C4.47751 0 -0.000488281 4.477 -0.000488281 10Z" fill="white"/>
</svg>
